# xmcd
#
# Track frame offsets:
#	150
#	11929
#	24668
#	35261
#	46026
#	64716
#	76234
#	85741
#	103218
#	113032
#	126882
#	137248
#	152980
#	164677
#	176028
#	187192
#	200182
#	218508
#	231986
#	243664
#	256389
#	265272
#	275858
#	291175
#	302545
#	312781
#	325354
#
# Disc length: 4563 seconds
#
# Revision: 1
# Processed by: cddbd v1.5.2PL0 Copyright (c) Steve Scherf et al.
# Submitted via: EZCDAudioConverter 2.1.7.1
#
DISCID=9711d11b
DTITLE=V/A - Let's Go Down and Blow Our Minds 3/3
DYEAR=1967
DGENRE=
TTITLE0=Our Plastic Dream - Someone Turned The Light Out
TTITLE1=Hat and Tie - Finding It Rough
TTITLE2=Fresh Windows - Fashion Conscious
TTITLE3=The Game - The Addicted Man
TTITLE4=Felius Andromeda - Meditations
TTITLE5=The Honeybus - Delighted To See You [Demo]
TTITLE6=Ice - So Many Times
TTITLE7=Flower Pot Men - A Walk In The Sky
TTITLE8=Five's Company - Friends And Mirrors
TTITLE9=The Late - Family Tree
TTITLE10=The Secrets - I Think I Need The Cash
TTITLE11=Skip Bifferty - Schizoid Revolution
TTITLE12=Purple Gang - Granny Takes A Trip
TTITLE13=Picadilly Line - Emily Small (The Huge World Thereof)
TTITLE14=Outer Limits - Help Me Please
TTITLE15=Focal Point - 'Cept Me
TTITLE16=Jade Hexagram - Great Shadowy Strange
TTITLE17=The Truth - Busker Bill
TTITLE18=Moody Blues - Life's Not Life
TTITLE19=Don Craine's New Downliners Sect - I Can't Get Away From You
TTITLE20=The Symbols - Again
TTITLE21=The Hi-Fi's - Odd Man Out
TTITLE22=The Marmalade - Laughing Man
TTITLE23=T. J. Assembly - Ginger
TTITLE24=The 23rd Turnoff - Michelangelo [Demo]
TTITLE25=The Q.P.R. Supporters - Supporters ─ Support Us
TTITLE26=Sands - Listen To The Sky
EXTD=
EXTT0=
EXTT1=
EXTT2=
EXTT3=
EXTT4=
EXTT5=
EXTT6=
EXTT7=
EXTT8=
EXTT9=
EXTT10=
EXTT11=
EXTT12=
EXTT13=
EXTT14=
EXTT15=
EXTT16=
EXTT17=
EXTT18=
EXTT19=
EXTT20=
EXTT21=
EXTT22=
EXTT23=
EXTT24=
EXTT25=
EXTT26=
PLAYORDER=
